<?xml version="1.0" encoding="iso-8859-1"?>
<!-- Generator: Adobe Illustrator 16.0.0, SVG Export Plug-In . SVG Version: 6.00 Build 0)  -->
<!DOCTYPE svg PUBLIC "-//W3C//DTD SVG 1.1//EN" "http://www.w3.org/Graphics/SVG/1.1/DTD/svg11.dtd">
<svg version="1.1" id="Capa_1" xmlns="http://www.w3.org/2000/svg" xmlns:xlink="http://www.w3.org/1999/xlink" x="0px" y="0px"
	 width="32px" height="32px" viewBox="0 0 32 32" style="enable-background:new 0 0 32 32;" xml:space="preserve">
<g>
	<path d="M14.512,18.164c1.029,0.715,1.857,1.16,2.066,1.977c0.039,0.164,0.061,0.334,0.061,0.508c0,1.439-0.928,2.564-3.591,2.564
		c-1.894,0-3.262-1.197-3.262-2.639c0-1.41,1.604-2.631,3.499-2.607C13.727,17.971,14.139,18.043,14.512,18.164z M32,0v32H0V0H32z
		 M15.885,9.107h1.238l1.054-1.105c0,0-3.482,0-4.716,0c-2.393,0-4.388,1.765-4.388,3.705c0,1.984,1.311,3.564,3.562,3.564
		c0.156,0,0.309-0.008,0.457-0.02c-0.146,0.281-0.25,0.594-0.25,0.92c0,0.552,0.303,0.865,0.678,1.229
		c-0.283,0-0.557,0.009-0.855,0.009c-2.74,0-4.658,1.885-4.658,3.694c0,1.78,2.313,2.896,5.053,2.896
		c3.124,0,5.043-1.772,5.043-3.556c0-1.43-0.31-2.147-1.832-3.288c-0.438-0.328-1.389-1.003-1.389-1.453
		c0-0.526,0.15-0.789,0.947-1.41c0.814-0.639,1.395-1.479,1.395-2.521C17.223,10.639,16.759,9.607,15.885,9.107z M23.994,10.395
		h-2.176V8.219H20.73v2.176h-2.176v1.088h2.176v2.176h1.088v-2.176h2.176V10.395z M12.751,8.768c-1.271-0.037-2.124,1.24-1.903,2.91
		c0.219,1.668,1.427,2.834,2.698,2.873c1.271,0.037,2.001-1.037,1.782-2.705C15.109,10.176,14.022,8.807,12.751,8.768z"/>
</g>
<g>
</g>
<g>
</g>
<g>
</g>
<g>
</g>
<g>
</g>
<g>
</g>
<g>
</g>
<g>
</g>
<g>
</g>
<g>
</g>
<g>
</g>
<g>
</g>
<g>
</g>
<g>
</g>
<g>
</g>
</svg>
